<svg width="18" height="18" viewBox="0 0 18 18" fill="none" xmlns="http://www.w3.org/2000/svg">
<g clip-path="url(#clip0_1009_24)">
<path d="M8.99788 0C8.48544 0 7.96737 0.2025 7.57644 0.593437L6.11956 2.05087H4.05519C2.95156 2.05087 2.04481 2.95706 2.04481 4.06181V6.12113L0.587938 7.58306C-0.193375 8.36381 -0.193375 9.64575 0.587938 10.4265L2.04481 11.8834V13.9472C2.04481 15.0514 2.951 15.9581 4.05519 15.9581H6.11956L7.57644 17.415C8.35775 18.1957 9.64306 18.1957 10.4244 17.415L11.8812 15.9581H13.9406C15.0453 15.9581 15.956 15.0519 15.956 13.9472V11.8834L17.4123 10.4265C18.1936 9.64575 18.1936 8.36381 17.4123 7.58306L15.956 6.12113V4.06181C15.956 2.95762 15.0448 2.05087 13.9406 2.05087H11.8812L10.4244 0.593437C10.0334 0.2025 9.51144 0 8.99788 0ZM8.99788 1.20038C9.20713 1.20038 9.41188 1.27744 9.57388 1.43944L11.2079 3.0735C11.3204 3.18656 11.4734 3.25069 11.6332 3.25069H13.9406C14.4013 3.25069 14.7556 3.60112 14.7556 4.06125V6.37313C14.7556 6.53063 14.8175 6.68194 14.9283 6.79388L16.5674 8.42794C16.8926 8.75363 16.8926 9.25425 16.5674 9.57938L14.9283 11.2089C14.8164 11.3226 14.7545 11.4756 14.7556 11.6342V13.9461C14.7556 14.4062 14.4013 14.7566 13.9406 14.7566H11.6332C11.4729 14.7566 11.3204 14.8207 11.2079 14.9338L9.57388 16.5679C9.24819 16.8936 8.75262 16.8936 8.42694 16.5679L6.79287 14.9338C6.68037 14.8207 6.52737 14.7572 6.36762 14.7566H4.05575C3.59562 14.7566 3.24575 14.4062 3.24575 13.9461V11.6342C3.24575 11.4744 3.18219 11.3214 3.06912 11.2089L1.4345 9.57938C1.10937 9.25369 1.10937 8.75306 1.4345 8.42794L3.06912 6.79388C3.18106 6.6825 3.24519 6.53119 3.24575 6.37313V4.06125C3.24575 3.60112 3.59562 3.25069 4.05575 3.25069H6.36762C6.52794 3.25069 6.68037 3.18656 6.79287 3.0735L8.42694 1.43944C8.58894 1.27688 8.78919 1.20038 8.99788 1.20038ZM7.03194 4.46456C6.04531 4.46456 5.23362 5.28019 5.23362 6.26681C5.23362 7.254 6.04531 8.06513 7.03194 8.06513C8.01913 8.06513 8.83025 7.254 8.83025 6.26681C8.82969 5.28019 8.01913 4.46456 7.03194 4.46456ZM7.03194 5.66494C7.37056 5.66494 7.62988 5.92819 7.62988 6.26681C7.62988 6.60544 7.37056 6.86475 7.03194 6.86475C6.69331 6.86475 6.4295 6.60544 6.4295 6.26681C6.4295 5.92819 6.69331 5.66494 7.03194 5.66494ZM12.0804 9.513C11.0937 9.513 10.2781 10.3241 10.2781 11.3113C10.2781 12.2979 11.0937 13.1141 12.0804 13.1141C13.0676 13.1141 13.8787 12.2985 13.8787 11.3113C13.8787 10.3241 13.0681 9.513 12.0804 9.513ZM12.0804 10.7134C12.419 10.7134 12.6783 10.9727 12.6783 11.3113C12.6783 11.6499 12.419 11.9137 12.0804 11.9137C11.7423 11.9137 11.4779 11.6499 11.4779 11.3113C11.4779 10.9727 11.7429 10.7134 12.0804 10.7134ZM12.4173 5.23069C12.2615 5.23519 12.1136 5.301 12.0056 5.41237L5.64087 11.7765C5.40631 12.0111 5.40631 12.3919 5.64087 12.627C5.87544 12.8616 6.25681 12.8616 6.49137 12.627L12.8555 6.26288C13.0946 6.03281 13.1019 5.65313 12.8718 5.41406C12.7537 5.29088 12.5883 5.22394 12.4173 5.23069Z" fill="#033564"/>
</g>
<defs>
<clipPath id="clip0_1009_24">
<rect width="18" height="18" fill="white"/>
</clipPath>
</defs>
</svg>
