<svg width="20" height="20" viewBox="0 0 20 20" fill="none" xmlns="http://www.w3.org/2000/svg">
<path d="M3.52936 15.2941H6.27446C6.49105 15.2941 6.66662 15.1186 6.66662 14.902V13.3333C6.66662 13.1167 6.49105 12.9412 6.27446 12.9412H3.52936C3.31278 12.9412 3.13721 13.1167 3.13721 13.3333V14.902C3.13721 15.1186 3.31278 15.2941 3.52936 15.2941ZM3.92152 13.7255H5.88231V14.5098H3.92152V13.7255Z" fill="#033564"/>
<path d="M13.7254 15.2941H16.4705C16.6871 15.2941 16.8627 15.1186 16.8627 14.902V13.3333C16.8627 13.1167 16.6871 12.9412 16.4705 12.9412H13.7254C13.5088 12.9412 13.3333 13.1167 13.3333 13.3333V14.902C13.3333 15.1186 13.5088 15.2941 13.7254 15.2941ZM14.1176 13.7255H16.0784V14.5098H14.1176V13.7255Z" fill="#033564"/>
<path d="M7.84308 13.7255H12.1568C12.3734 13.7255 12.549 13.5499 12.549 13.3333C12.549 13.1167 12.3734 12.9412 12.1568 12.9412H7.84308C7.6265 12.9412 7.45093 13.1167 7.45093 13.3333C7.45093 13.5499 7.6265 13.7255 7.84308 13.7255Z" fill="#033564"/>
<path d="M7.84308 15.2941H12.1568C12.3734 15.2941 12.549 15.1185 12.549 14.902C12.549 14.6854 12.3734 14.5098 12.1568 14.5098H7.84308C7.6265 14.5098 7.45093 14.6854 7.45093 14.902C7.45093 15.1185 7.6265 15.2941 7.84308 15.2941Z" fill="#033564"/>
<path d="M10.3921 1.56863H7.64704C7.43045 1.56863 7.25488 1.7442 7.25488 1.96079C7.25488 2.17738 7.43045 2.35295 7.64704 2.35295H10.3921C10.6087 2.35295 10.7843 2.17738 10.7843 1.96079C10.7843 1.7442 10.6087 1.56863 10.3921 1.56863Z" fill="#033564"/>
<path d="M12.3529 1.56863H11.9608C11.7442 1.56863 11.5686 1.7442 11.5686 1.96079C11.5686 2.17738 11.7442 2.35295 11.9608 2.35295H12.3529C12.5695 2.35295 12.7451 2.17738 12.7451 1.96079C12.7451 1.7442 12.5695 1.56863 12.3529 1.56863Z" fill="#033564"/>
<path d="M19.6078 3.92157H18.4314V1.56863C18.4314 0.703686 17.7277 0 16.8627 0H3.13725C2.27231 0 1.56863 0.703686 1.56863 1.56863V3.92157H0.392157C0.175569 3.92157 0 4.09714 0 4.31373V8.23529C0 8.45188 0.175569 8.62745 0.392157 8.62745H1.56863V16.0784C1.56863 16.9434 2.27231 17.6471 3.13725 17.6471V19.6078C3.13725 19.8244 3.31282 20 3.52941 20H6.27451C6.4911 20 6.66667 19.8244 6.66667 19.6078V17.6471H13.3333V19.6078C13.3333 19.8244 13.5089 20 13.7255 20H16.4706C16.6872 20 16.8627 19.8244 16.8627 19.6078V17.6471C17.7277 17.6471 18.4314 16.9434 18.4314 16.0784V8.62745H19.6078C19.8244 8.62745 20 8.45188 20 8.23529V4.31373C20 4.09714 19.8244 3.92157 19.6078 3.92157ZM1.56863 7.84314H0.784314V4.70588H1.56863V7.84314ZM5.88235 19.2157H3.92157V17.6471H5.88235V19.2157ZM16.0784 19.2157H14.1176V17.6471H16.0784V19.2157ZM17.6471 16.0784C17.6471 16.5109 17.2952 16.8627 16.8627 16.8627C12.5053 16.8627 7.49777 16.8627 3.13725 16.8627C2.70478 16.8627 2.35294 16.5109 2.35294 16.0784V11.3725H17.6471V16.0784ZM17.6471 10.5882H2.35294V3.92157H17.6471V10.5882ZM17.6471 3.13725H2.35294V1.56863C2.35294 1.13616 2.70478 0.784314 3.13725 0.784314H16.8627C17.2952 0.784314 17.6471 1.13616 17.6471 1.56863V3.13725ZM19.2157 7.84314H18.4314V4.70588H19.2157V7.84314Z" fill="#033564"/>
</svg>
