<svg width="21" height="21" viewBox="0 0 21 21" fill="none" xmlns="http://www.w3.org/2000/svg">
<path d="M2.75 20.625C2.59659 20.625 2.44519 20.5736 2.32199 20.4756C2.14474 20.3343 2.04807 20.1147 2.06418 19.8885L2.28641 16.7783C0.810028 14.9474 0 12.6627 0 10.3125C0 4.62619 4.62619 0 10.3125 0C15.9988 0 20.625 4.62619 20.625 10.3125C20.625 15.9988 15.9988 20.625 10.3125 20.625C8.80927 20.625 7.35336 20.3014 5.98138 19.6626L2.95209 20.5945C2.88596 20.6149 2.81781 20.625 2.75 20.625ZM6.03677 18.2386C6.14218 18.2386 6.24692 18.2627 6.34293 18.3104C7.59607 18.9338 8.93146 19.25 10.3125 19.25C15.2408 19.25 19.25 15.2408 19.25 10.3125C19.25 5.38419 15.2408 1.375 10.3125 1.375C5.38419 1.375 1.375 5.38419 1.375 10.3125C1.375 12.4307 2.13501 14.4882 3.51471 16.1059C3.63187 16.2432 3.69028 16.4211 3.67752 16.601L3.50732 18.9851L5.83469 18.2691C5.90048 18.2486 5.96896 18.2386 6.03677 18.2386ZM10.3125 8.25C9.17517 8.25 8.25 7.32483 8.25 6.1875C8.25 5.05017 9.17517 4.125 10.3125 4.125C11.4498 4.125 12.375 5.05017 12.375 6.1875C12.375 7.32483 11.4498 8.25 10.3125 8.25ZM10.3125 5.5C9.9335 5.5 9.625 5.8085 9.625 6.1875C9.625 6.5665 9.9335 6.875 10.3125 6.875C10.6915 6.875 11 6.5665 11 6.1875C11 5.8085 10.6915 5.5 10.3125 5.5ZM11.6875 16.5H8.9375C8.55783 16.5 8.25 16.1922 8.25 15.8125V10.3125C8.25 9.93283 8.55783 9.625 8.9375 9.625H11.6875C12.0672 9.625 12.375 9.93283 12.375 10.3125V15.8125C12.375 16.1922 12.0672 16.5 11.6875 16.5ZM9.625 15.125H11V11H9.625V15.125Z" fill="#114371"/>
</svg>
