<svg width="23" height="23" viewBox="0 0 23 23" fill="none" xmlns="http://www.w3.org/2000/svg">
<g clip-path="url(#clip0_1009_62)">
<path d="M19.6317 3.36824C17.4597 1.19622 14.5718 0 11.5 0C8.42824 0 5.54035 1.19622 3.36824 3.36824C1.19622 5.54035 0 8.42824 0 11.5C0 14.5718 1.19618 17.4597 3.36824 19.6318C5.54035 21.8038 8.42824 23 11.5 23C14.5718 23 17.4597 21.8038 19.6318 19.6318C21.8038 17.4597 23 14.5718 23 11.5C23 8.42824 21.8038 5.54035 19.6317 3.36824ZM5.29256 19.5277C6.17676 16.8769 8.66992 15.0608 11.5 15.0608C14.3301 15.0608 16.8233 16.877 17.7074 19.5278C15.9899 20.8588 13.836 21.6523 11.5 21.6523C9.16397 21.6523 7.01001 20.8588 5.29256 19.5277ZM18.7843 18.5639C17.5747 15.661 14.7179 13.7132 11.5 13.7132C8.28202 13.7132 5.4253 15.661 4.21565 18.5639C2.44168 16.7351 1.34766 14.2431 1.34766 11.5C1.34766 5.90197 5.90197 1.34766 11.5 1.34766C17.098 1.34766 21.6523 5.90197 21.6523 11.5C21.6523 14.2431 20.5583 16.7351 18.7843 18.5639Z" fill="#033564"/>
<path d="M11.5001 3.60875C9.13866 3.60875 7.21753 5.52992 7.21753 7.89129C7.21753 10.2527 9.13866 12.1738 11.5001 12.1738C13.8615 12.1738 15.7826 10.2527 15.7826 7.89129C15.7826 5.52992 13.8615 3.60875 11.5001 3.60875ZM11.5001 10.8262C9.88176 10.8262 8.56519 9.50955 8.56519 7.89129C8.56519 6.27302 9.88176 4.95641 11.5001 4.95641C13.1184 4.95641 14.435 6.27302 14.435 7.89129C14.435 9.50955 13.1184 10.8262 11.5001 10.8262Z" fill="#033564"/>
</g>
<defs>
<clipPath id="clip0_1009_62">
<rect width="23" height="23" fill="white"/>
</clipPath>
</defs>
</svg>
