<svg width="26" height="26" viewBox="0 0 26 26" fill="none" xmlns="http://www.w3.org/2000/svg">
<path d="M4.57934 16.324C3.75725 16.324 3.08838 16.9928 3.08838 17.815C3.08838 18.6371 3.7572 19.3059 4.57934 19.3059C5.40149 19.3059 6.07036 18.6371 6.07036 17.815C6.07036 16.9928 5.40143 16.324 4.57934 16.324ZM4.57934 18.4127C4.24976 18.4127 3.98156 18.1446 3.98156 17.815C3.98156 17.4853 4.2497 17.2172 4.57934 17.2172C4.90899 17.2172 5.17718 17.4853 5.17718 17.815C5.17718 18.1446 4.90893 18.4127 4.57934 18.4127Z" fill="#033564"/>
<path d="M20.0882 16.324C19.266 16.324 18.5972 16.9928 18.5972 17.815C18.5972 18.6371 19.266 19.3059 20.0882 19.3059C20.9103 19.3059 21.5792 18.6371 21.5792 17.815C21.5792 16.9928 20.9103 16.324 20.0882 16.324ZM20.0882 18.4127C19.7585 18.4127 19.4904 18.1446 19.4904 17.815C19.4904 17.4853 19.7585 17.2172 20.0882 17.2172C20.4178 17.2172 20.686 17.4853 20.686 17.815C20.686 18.1446 20.4178 18.4127 20.0882 18.4127Z" fill="#033564"/>
<path d="M23.8016 5.19255H2.19902C0.986492 5.19255 0 6.17875 0 7.39097V17.9806C0 18.2272 0.199954 18.4272 0.446592 18.4272H1.65013C1.93345 19.7846 3.13919 20.8074 4.57947 20.8074C6.01976 20.8074 7.22544 19.7846 7.50876 18.4272H17.159C17.4423 19.7846 18.648 20.8074 20.0883 20.8074C21.5285 20.8074 22.7342 19.7846 23.0175 18.4272H25.5534C25.8 18.4272 26 18.2272 26 17.9806V7.39097C26 6.17875 25.0138 5.19255 23.8016 5.19255ZM1.60053 17.534H0.893184V17.0642H1.6824C1.64292 17.2164 1.61559 17.3734 1.60053 17.534ZM4.57942 19.9143C3.42185 19.9143 2.48008 18.9725 2.48008 17.815C2.48008 16.6574 3.42185 15.7157 4.57942 15.7157C5.73698 15.7157 6.6787 16.6574 6.6787 17.815C6.6787 18.9725 5.73698 19.9143 4.57942 19.9143ZM20.0883 19.9143C18.9307 19.9143 17.989 18.9725 17.989 17.815C17.989 16.6574 18.9307 15.7157 20.0883 15.7157C21.2458 15.7157 22.1875 16.6574 22.1875 17.815C22.1875 18.9725 21.2458 19.9143 20.0883 19.9143ZM25.1068 17.534H23.0671C23.0521 17.3734 23.0247 17.2164 22.9853 17.0642H25.1068V17.534ZM25.1068 14.5275H24.3625C24.1159 14.5275 23.9159 14.7274 23.9159 14.974C23.9159 15.2207 24.1159 15.4206 24.3625 15.4206H25.1068V16.1709H22.5869C22.0511 15.3594 21.1314 14.8225 20.0883 14.8225C19.0451 14.8225 18.1254 15.3594 17.5896 16.171H9.20813C8.9615 16.171 8.76154 16.3709 8.76154 16.6176C8.76154 16.8642 8.9615 17.0642 9.20813 17.0642H17.1912C17.1518 17.2164 17.1244 17.3734 17.1094 17.534H7.5583C7.41617 16.0152 6.13469 14.8224 4.57942 14.8224C3.53624 14.8224 2.61649 15.3593 2.0807 16.1709H0.893184V7.39092C0.893184 6.67119 1.47899 6.08568 2.19902 6.08568H23.8016C24.3645 6.08568 24.8453 6.4439 25.0281 6.94432H22.6928C21.9226 6.94432 21.2959 7.57098 21.2959 8.34126V12.5946C21.2959 13.3649 21.9226 13.9915 22.6928 13.9915H25.1068V14.5275ZM25.1068 13.0984H22.6928C22.4151 13.0984 22.1891 12.8724 22.1891 12.5947V8.34132C22.1891 8.06354 22.4151 7.83757 22.6928 7.83757H25.1068V13.0984Z" fill="#033564"/>
<path d="M19.3631 6.94438H3.30539C2.53511 6.94438 1.90845 7.57104 1.90845 8.34132V12.5947C1.90845 13.3649 2.53511 13.9916 3.30539 13.9916H19.3631C20.1333 13.9916 20.76 13.3649 20.76 12.5947V8.34132C20.76 7.57104 20.1333 6.94438 19.3631 6.94438ZM7.95769 13.0984H3.30539C3.02761 13.0984 2.80163 12.8724 2.80163 12.5947V8.34132C2.80163 8.06354 3.02761 7.83757 3.30539 7.83757H7.95769V13.0984ZM14.0313 13.0984H8.85087V7.83757H14.0313V13.0984ZM19.8668 12.5947C19.8668 12.8724 19.6408 13.0984 19.3631 13.0984H14.9245V7.83757H19.3631C19.6408 7.83757 19.8668 8.06354 19.8668 8.34132V12.5947Z" fill="#033564"/>
<path d="M8.3305 16.2464C8.16306 16.136 7.93649 16.15 7.7859 16.2837C7.65013 16.4042 7.60142 16.601 7.66377 16.7712C7.73028 16.9528 7.91124 17.0729 8.10465 17.0634C8.29198 17.0542 8.45686 16.9244 8.51057 16.745C8.56589 16.5603 8.49193 16.3527 8.3305 16.2464Z" fill="#033564"/>
<path d="M8.33643 16.2501C8.3384 16.2514 8.33905 16.2519 8.33643 16.2501V16.2501Z" fill="#033564"/>
<path d="M8.33091 16.2466C8.31807 16.2382 8.32446 16.2423 8.33091 16.2466V16.2466Z" fill="#033564"/>
<path d="M8.33057 16.2464C8.33336 16.2482 8.3358 16.2498 8.33727 16.2508C8.33601 16.25 8.33399 16.2486 8.33057 16.2464Z" fill="#033564"/>
</svg>
