<svg width="21" height="21" viewBox="0 0 21 21" fill="none" xmlns="http://www.w3.org/2000/svg"><path d="M2.8 21c-.1562 0-.31035-.0523-.43579-.1521-.18047-.1439-.27891-.3674-.2625-.5978l.22627-3.1668C.824756 15.2192 0 12.8929 0 10.5 0 4.7103 4.7103 0 10.5 0S21 4.7103 21 10.5 16.2897 21 10.5 21c-1.53057 0-3.01294-.3295-4.40986-.9799l-3.08438.9488C2.93843 20.9897 2.86904 21 2.8 21Zm3.34653-2.4298c.10733 0 .21397.0246.31172.0731 1.27593.6347 2.6356.9567 4.04175.9567 5.0179 0 9.1-4.0821 9.1-9.1 0-5.01792-4.0821-9.1-9.1-9.1-5.01792 0-9.1 4.08208-9.1 9.1 0 2.1567.77383 4.2516 2.17861 5.8987.11929.1398.17876.321.16577.5042l-.17329 2.4274 2.36968-.729c.06699-.0209.13672-.0311.20576-.0311ZM10.5 8.4c-1.15801 0-2.1-.94199-2.1-2.1s.94199-2.1 2.1-2.1c1.158 0 2.1.94199 2.1 2.1s-.942 2.1-2.1 2.1Zm0-2.8c-.3859 0-.7.31411-.7.7 0 .38589.3141.7.7.7.3859 0 .7-.31411.7-.7 0-.38589-.3141-.7-.7-.7Zm1.4 11.2H9.1c-.38657 0-.7-.3134-.7-.7v-5.6c0-.3866.31343-.7.7-.7h2.8c.3866 0 .7.3134.7.7v5.6c0 .3866-.3134.7-.7.7Zm-2.1-1.4h1.4v-4.2H9.8v4.2Z" fill="#114371"/></svg>