<svg width="20" height="20" viewBox="0 0 20 20" fill="none" xmlns="http://www.w3.org/2000/svg"><g clip-path="url(#clip0_1015_18)" fill="#033564"><path d="M3.52936 15.2943h2.7451c.21659 0 .39216-.1755.39216-.3921v-1.5686c0-.2166-.17557-.3922-.39216-.3922h-2.7451c-.21658 0-.39215.1756-.39215.3922v1.5686c0 .2166.17557.3921.39215.3921Zm.39216-1.5686h1.96079v.7843H3.92152v-.7843ZM13.7255 15.2943h2.7451c.2166 0 .3922-.1755.3922-.3921v-1.5686c0-.2166-.1756-.3922-.3922-.3922h-2.7451c-.2166 0-.3921.1756-.3921.3922v1.5686c0 .2166.1755.3921.3921.3921Zm.3922-1.5686h1.9608v.7843h-1.9608v-.7843ZM7.84308 13.7257h4.31372c.2166 0 .3922-.1755.3922-.3921 0-.2166-.1756-.3922-.3922-.3922H7.84308c-.21658 0-.39215.1756-.39215.3922s.17557.3921.39215.3921ZM7.84308 15.2941h4.31372c.2166 0 .3922-.1756.3922-.3922s-.1756-.3921-.3922-.3921H7.84308c-.21658 0-.39215.1755-.39215.3921 0 .2166.17557.3922.39215.3922ZM10.3921 1.56836H7.64704c-.21659 0-.39216.17557-.39216.39216 0 .21658.17557.39215.39216.39215h2.74506c.2166 0 .3922-.17557.3922-.39215 0-.21659-.1756-.39216-.3922-.39216ZM12.3529 1.56836h-.3921c-.2166 0-.3922.17557-.3922.39216 0 .21658.1756.39215.3922.39215h.3921c.2166 0 .3922-.17557.3922-.39215 0-.21659-.1756-.39216-.3922-.39216Z"/><path d="M19.6078 3.92157h-1.1764V1.56863C18.4314.703686 17.7277 0 16.8627 0H3.13725c-.86494 0-1.56862.703686-1.56862 1.56863v2.35294H.392157C.175569 3.92157 0 4.09714 0 4.31373v3.92156c0 .21659.175569.39216.392157.39216H1.56863v7.45095c0 .865.70368 1.5687 1.56862 1.5687v1.9607c0 .2166.17557.3922.39216.3922h2.7451c.21659 0 .39216-.1756.39216-.3922v-1.9607h6.66663v1.9607c0 .2166.1756.3922.3922.3922h2.7451c.2166 0 .3921-.1756.3921-.3922v-1.9607c.865 0 1.5687-.7037 1.5687-1.5687V8.62745h1.1764c.2166 0 .3922-.17557.3922-.39216V4.31373c0-.21659-.1756-.39216-.3922-.39216ZM1.56863 7.84314H.784314V4.70588h.784316v3.13726ZM5.88235 19.2157H3.92157v-1.5686h1.96078v1.5686Zm10.19605 0h-1.9608v-1.5686h1.9608v1.5686Zm1.5687-3.1373c0 .4325-.3519.7843-.7844.7843H3.13725c-.43247 0-.78431-.3518-.78431-.7843v-4.7059H17.6471v4.7059Zm0-5.4902H2.35294V3.92157H17.6471v6.66663Zm0-7.45095H2.35294V1.56863c0-.43247.35184-.784316.78431-.784316H16.8627c.4325 0 .7844.351846.7844.784316v1.56862Zm1.5686 4.70589h-.7843V4.70588h.7843v3.13726Z"/></g><defs><clipPath id="clip0_1015_18"><path fill="#fff" d="M0 0h20v20H0z"/></clipPath></defs></svg>