<svg width="24" height="24" viewBox="0 0 24 24" fill="none" xmlns="http://www.w3.org/2000/svg"><path d="M7.42862 14.8571H5.90485c-1.15553 0-2.09528-.9397-2.09528-2.0953v-2.2857c0-1.15549.93975-2.09524 2.09528-2.09524h1.52377c.73515 0 1.33335.5982 1.33335 1.33335v3.80959c0 .7351-.5982 1.3333-1.33335 1.3333ZM5.90485 9.52378c-.5253 0-.95235.42705-.95235.95232v2.2857c0 .5253.42705.9524.95235.9524h1.52377c.10493 0 .1905-.0856.1905-.1905V9.71413c0-.10492-.08557-.1905-.1905-.1905l-1.52377.00015ZM18.0953 14.8571h-1.5238c-.7351 0-1.3333-.5982-1.3333-1.3333V9.71421c0-.73515.5982-1.33335 1.3333-1.33335h1.5238c1.1555 0 2.0953.93975 2.0953 2.09524v2.2857c0 1.1556-.9398 2.0953-2.0953 2.0953Zm-1.5238-5.33332c-.1049 0-.1905.08558-.1905.1905v3.80952c0 .105.0856.1905.1905.1905h1.5238c.5253 0 .9523-.427.9523-.9523v-2.2857c0-.52532-.427-.95237-.9523-.95237l-1.5238-.00015Z" fill="#033564"/><path d="M18.0953 9.5238c-.3155 0-.5714-.25598-.5714-.57143v-2.2857c0-3.04612-2.4777-5.52382-5.5239-5.52382-3.04608 0-5.52378 2.4777-5.52378 5.52382v2.2857c0 .31545-.25597.57143-.57142.57143-.31545 0-.57143-.25598-.57143-.57143v-2.2857C5.33337 2.99032 8.32407 0 12 0c3.676 0 6.6667 2.99032 6.6667 6.66667v2.2857c0 .31545-.256.57143-.5714.57143ZM17.3333 17.9051h-2.2857c-.3154 0-.5714-.256-.5714-.5714 0-.3155.256-.5714.5714-.5714h2.2857c.1049 0 .1905-.0856.1905-.1905V15.048c0-.3155.256-.5714.5714-.5714.3155 0 .5715.2559.5715.5714v1.5238c0 .7351-.5982 1.3333-1.3334 1.3333Z" fill="#033564"/></svg>