<svg width="23" height="23" viewBox="0 0 23 23" fill="none" xmlns="http://www.w3.org/2000/svg"><g clip-path="url(#clip0_1009_62)" fill="#033564"><path d="M19.6317 3.36824C17.4597 1.19622 14.5718 0 11.5 0 8.42824 0 5.54035 1.19622 3.36824 3.36824 1.19622 5.54035 0 8.42824 0 11.5c0 3.0718 1.19618 5.9597 3.36824 8.1318C5.54035 21.8038 8.42824 23 11.5 23c3.0718 0 5.9597-1.1962 8.1318-3.3682C21.8038 17.4597 23 14.5718 23 11.5c0-3.07176-1.1962-5.95965-3.3683-8.13176ZM5.29256 19.5277c.8842-2.6508 3.37736-4.4669 6.20744-4.4669 2.8301 0 5.3233 1.8162 6.2074 4.467-1.7175 1.331-3.8714 2.1245-6.2074 2.1245-2.33603 0-4.48999-.7935-6.20744-2.1246Zm13.49174-.9638c-1.2096-2.9029-4.0664-4.8507-7.2843-4.8507-3.21798 0-6.0747 1.9478-7.28435 4.8507-1.77397-1.8288-2.86799-4.3208-2.86799-7.0639 0-5.59803 4.55431-10.15234 10.15234-10.15234 5.598 0 10.1523 4.55431 10.1523 10.15234 0 2.7431-1.094 5.2351-2.868 7.0639Z"/><path d="M11.5001 3.60875c-2.36144 0-4.28257 1.92117-4.28257 4.28254 0 2.36141 1.92113 4.28251 4.28257 4.28251 2.3614 0 4.2825-1.9211 4.2825-4.28251 0-2.36137-1.9211-4.28254-4.2825-4.28254Zm0 7.21745c-1.61834 0-2.93491-1.31665-2.93491-2.93491 0-1.61827 1.31657-2.93488 2.93491-2.93488 1.6183 0 2.9349 1.31661 2.9349 2.93488 0 1.61826-1.3166 2.93491-2.9349 2.93491Z"/></g><defs><clipPath id="clip0_1009_62"><path fill="#fff" d="M0 0h23v23H0z"/></clipPath></defs></svg>