<svg width="18" height="18" viewBox="0 0 18 18" fill="none" xmlns="http://www.w3.org/2000/svg"><path d="M8.99775 0c-.51254 0-1.03071.202494-1.42173.593419L6.11885 2.05081H4.05406c-1.10385 0-2.01079.90616-2.01079 2.01088v2.05924L.586103 7.58283c-.781471.78072-.781471 2.06262 0 2.84337L2.04327 11.883v2.0638c0 1.1041.90638 2.0108 2.01079 2.0108h2.06479l1.45717 1.4569c.78147.7807 2.06705.7807 2.84848 0l1.4572-1.4569h2.0597c1.105 0 2.0159-.9061 2.0159-2.0108V11.883l1.4566-1.4568c.7815-.78075.7815-2.06265 0-2.84337l-1.4566-1.4619V4.06169c0-1.10416-.9114-2.01088-2.0159-2.01088h-2.0597L10.4245.593419C10.0335.202494 9.51142 0 8.99775 0Zm0 1.20034c.20929 0 .41408.07706.57612.23905L11.2083 3.0734c.1125.11306.2655.17719.4253.17719h2.3078c.4608 0 .8153.35042.8153.81053v2.31181c0 .15749.0619.3088.1727.42073l1.6394 1.63401c.3252.32568.3252.82629 0 1.15141l-1.6394 1.62952c-.112.1136-.1739.2666-.1727.4252v2.3118c0 .4601-.3545.8106-.8153.8106h-2.3078c-.1603 0-.3128.0641-.4253.1771l-1.63443 1.6341c-.32576.3256-.82142.3256-1.14717 0l-1.6344-1.6341c-.11252-.113-.26555-.1766-.42534-.1771H4.05462c-.46022 0-.81016-.3505-.81016-.8106v-2.3118c0-.1597-.06358-.3127-.17667-.4252L1.43284 9.57908c-.32519-.32568-.32519-.82629 0-1.15141l1.63495-1.63401c.11197-.11137.1761-.26268.17667-.42073V4.06112c0-.46011.34994-.81053.81016-.81053h2.31234c.16035 0 .31282-.06413.42534-.17719l1.6344-1.63401c.16203-.16255.36232-.23905.57105-.23905ZM7.03141 4.46442c-.98682 0-1.79868.8156-1.79868 1.8022 0 .98715.81186 1.79825 1.79868 1.79825.98739 0 1.79868-.8111 1.79868-1.79825-.00056-.9866-.81129-1.8022-1.79868-1.8022Zm0 1.20034c.3387 0 .59806.26324.59806.60186 0 .33861-.25936.59792-.59806.59792-.33869 0-.60256-.25931-.60256-.59792 0-.33862.26387-.60186.60256-.60186ZM12.0809 9.5127c-.9869 0-1.8026.8111-1.8026 1.7983 0 .9866.8157 1.8027 1.8026 1.8027.9874 0 1.7987-.8156 1.7987-1.8027 0-.9872-.8108-1.7983-1.7987-1.7983Zm0 1.2003c.3387 0 .598.2593.598.598 0 .3386-.2593.6024-.598.6024-.3382 0-.6026-.2638-.6026-.6024 0-.3387.265-.598.6026-.598Zm.337-5.48248c-.1559.0045-.3038.07031-.4119.18169L5.64007 11.7761c-.23461.2346-.23461.6154 0 .8505.23461.2346.61606.2346.85067 0l6.36546-6.36392c.2391-.23006.2464-.60973.0163-.84879-.1182-.12318-.2836-.19012-.4546-.18337Z" fill="#033564"/></svg>